<svg xmlns="http://www.w3.org/2000/svg" version="1.1" xmlns:xlink="http://www.w3.org/1999/xlink" width="1000" height="1000"><g clip-path="url(#SvgjsClipPath1086)"><rect width="1000" height="1000" fill="#000000"></rect><g transform="matrix(1.953125,0,0,1.953125,0,0)"><svg xmlns="http://www.w3.org/2000/svg" version="1.1" xmlns:xlink="http://www.w3.org/1999/xlink" width="512" height="512"><svg width="512" height="512" viewBox="0 0 512 512" fill="none" xmlns="http://www.w3.org/2000/svg">
<rect width="512" height="512" fill="black"></rect>
<path d="M248.396 346.5C239.521 346.5 232.353 344.196 226.892 339.588C221.431 334.98 218.7 327.641 218.7 317.572V164.74H245.836V315.012C245.836 318.084 246.604 320.388 248.14 321.924C249.847 323.46 252.236 324.228 255.308 324.228H266.06V346.5H248.396Z" fill="white"></path>
<path d="M268.934 237.188L281.734 196.996H267.654V164.74H300.678V193.156L284.55 237.188H268.934Z" fill="#FF2056"></path>
</svg></svg></g></g><defs><clipPath id="SvgjsClipPath1086"><rect width="1000" height="1000" x="0" y="0" rx="500" ry="500"></rect></clipPath></defs></svg>